<?xml version="1.0" encoding="UTF-8" standalone="no"?><svg xmlns="http://www.w3.org/2000/svg" xmlns:xlink="http://www.w3.org/1999/xlink" contentScriptType="application/ecmascript" contentStyleType="text/css" height="1183px" preserveAspectRatio="none" style="width:433px;height:1183px;" version="1.1" viewBox="0 0 433 1183" width="433px" zoomAndPan="magnify"><defs><filter height="300%" id="ft9okxm3qrwav" width="300%" x="-1" y="-1"><feGaussianBlur result="blurOut" stdDeviation="2.0"/><feColorMatrix in="blurOut" result="blurOut2" type="matrix" values="0 0 0 0 0 0 0 0 0 0 0 0 0 0 0 0 0 0 .4 0"/><feOffset dx="4.0" dy="4.0" in="blurOut2" result="blurOut3"/><feBlend in="SourceGraphic" in2="blurOut3" mode="normal"/></filter></defs><g><ellipse cx="348" cy="18" fill="#000000" filter="url(#ft9okxm3qrwav)" rx="10" ry="10" style="stroke: none; stroke-width: 1.0;"/><rect fill="#FEFECE" filter="url(#ft9okxm3qrwav)" height="34.1328" rx="12.5" ry="12.5" style="stroke: #A80036; stroke-width: 1.5;" width="88" x="304" y="82"/><text fill="#000000" font-family="sans-serif" font-size="12" lengthAdjust="spacingAndGlyphs" textLength="68" x="314" y="103.6016">null,null,null</text><rect fill="#FEFECE" filter="url(#ft9okxm3qrwav)" height="34.1328" rx="12.5" ry="12.5" style="stroke: #A80036; stroke-width: 1.5;" width="76" x="310" y="170"/><text fill="#000000" font-family="sans-serif" font-size="12" lengthAdjust="spacingAndGlyphs" textLength="56" x="320" y="191.6016">0,null,null</text><rect fill="#FEFECE" filter="url(#ft9okxm3qrwav)" height="34.1328" rx="12.5" ry="12.5" style="stroke: #A80036; stroke-width: 1.5;" width="64" x="316" y="258"/><text fill="#000000" font-family="sans-serif" font-size="12" lengthAdjust="spacingAndGlyphs" textLength="44" x="326" y="279.6016">0,0,null</text><rect fill="#FF0000" filter="url(#ft9okxm3qrwav)" height="34.1328" rx="12.5" ry="12.5" style="stroke: #A80036; stroke-width: 1.5;" width="52" x="322" y="346"/><text fill="#000000" font-family="sans-serif" font-size="12" lengthAdjust="spacingAndGlyphs" textLength="32" x="332" y="367.6016">0,0,0</text><rect fill="#FEFECE" filter="url(#ft9okxm3qrwav)" height="34.1328" rx="12.5" ry="12.5" style="stroke: #A80036; stroke-width: 1.5;" width="52" x="254" y="434"/><text fill="#000000" font-family="sans-serif" font-size="12" lengthAdjust="spacingAndGlyphs" textLength="32" x="264" y="455.6016">0,1,0</text><rect fill="#FEFECE" filter="url(#ft9okxm3qrwav)" height="34.1328" rx="12.5" ry="12.5" style="stroke: #A80036; stroke-width: 1.5;" width="52" x="234" y="522"/><text fill="#000000" font-family="sans-serif" font-size="12" lengthAdjust="spacingAndGlyphs" textLength="32" x="244" y="543.6016">0,1,1</text><rect fill="#FEFECE" filter="url(#ft9okxm3qrwav)" height="34.1328" rx="12.5" ry="12.5" style="stroke: #A80036; stroke-width: 1.5;" width="52" x="161" y="610"/><text fill="#000000" font-family="sans-serif" font-size="12" lengthAdjust="spacingAndGlyphs" textLength="32" x="171" y="631.6016">0,1,2</text><rect fill="#FEFECE" filter="url(#ft9okxm3qrwav)" height="34.1328" rx="12.5" ry="12.5" style="stroke: #A80036; stroke-width: 1.5;" width="52" x="77" y="698"/><text fill="#000000" font-family="sans-serif" font-size="12" lengthAdjust="spacingAndGlyphs" textLength="32" x="87" y="719.6016">0,1,3</text><rect fill="#FEFECE" filter="url(#ft9okxm3qrwav)" height="34.1328" rx="12.5" ry="12.5" style="stroke: #A80036; stroke-width: 1.5;" width="52" x="6" y="786"/><text fill="#000000" font-family="sans-serif" font-size="12" lengthAdjust="spacingAndGlyphs" textLength="32" x="16" y="807.6016">0,1,4</text><rect fill="#FEFECE" filter="url(#ft9okxm3qrwav)" height="34.1328" rx="12.5" ry="12.5" style="stroke: #A80036; stroke-width: 1.5;" width="52" x="6" y="874"/><text fill="#000000" font-family="sans-serif" font-size="12" lengthAdjust="spacingAndGlyphs" textLength="32" x="16" y="895.6016">0,0,4</text><rect fill="#FEFECE" filter="url(#ft9okxm3qrwav)" height="34.1328" rx="12.5" ry="12.5" style="stroke: #A80036; stroke-width: 1.5;" width="52" x="77" y="962"/><text fill="#000000" font-family="sans-serif" font-size="12" lengthAdjust="spacingAndGlyphs" textLength="32" x="87" y="983.6016">0,0,3</text><rect fill="#FEFECE" filter="url(#ft9okxm3qrwav)" height="34.1328" rx="12.5" ry="12.5" style="stroke: #A80036; stroke-width: 1.5;" width="52" x="161" y="1050"/><text fill="#000000" font-family="sans-serif" font-size="12" lengthAdjust="spacingAndGlyphs" textLength="32" x="171" y="1071.6016">0,0,2</text><rect fill="#FEFECE" filter="url(#ft9okxm3qrwav)" height="34.1328" rx="12.5" ry="12.5" style="stroke: #A80036; stroke-width: 1.5;" width="52" x="252" y="1138"/><text fill="#000000" font-family="sans-serif" font-size="12" lengthAdjust="spacingAndGlyphs" textLength="32" x="262" y="1159.6016">0,0,1</text><rect fill="#FEFECE" filter="url(#ft9okxm3qrwav)" height="34.1328" rx="12.5" ry="12.5" style="stroke: #A80036; stroke-width: 1.5;" width="52" x="328" y="434"/><text fill="#000000" font-family="sans-serif" font-size="12" lengthAdjust="spacingAndGlyphs" textLength="32" x="338" y="455.6016">1,0,0</text><rect fill="#FEFECE" filter="url(#ft9okxm3qrwav)" height="34.1328" rx="12.5" ry="12.5" style="stroke: #A80036; stroke-width: 1.5;" width="52" x="329" y="522"/><text fill="#000000" font-family="sans-serif" font-size="12" lengthAdjust="spacingAndGlyphs" textLength="32" x="339" y="543.6016">2,0,0</text><rect fill="#FEFECE" filter="url(#ft9okxm3qrwav)" height="34.1328" rx="12.5" ry="12.5" style="stroke: #A80036; stroke-width: 1.5;" width="52" x="330" y="610"/><text fill="#000000" font-family="sans-serif" font-size="12" lengthAdjust="spacingAndGlyphs" textLength="32" x="340" y="631.6016">3,0,0</text><rect fill="#FEFECE" filter="url(#ft9okxm3qrwav)" height="34.1328" rx="12.5" ry="12.5" style="stroke: #A80036; stroke-width: 1.5;" width="52" x="330" y="698"/><text fill="#000000" font-family="sans-serif" font-size="12" lengthAdjust="spacingAndGlyphs" textLength="32" x="340" y="719.6016">4,0,0</text><rect fill="#FEFECE" filter="url(#ft9okxm3qrwav)" height="34.1328" rx="12.5" ry="12.5" style="stroke: #A80036; stroke-width: 1.5;" width="52" x="330" y="786"/><text fill="#000000" font-family="sans-serif" font-size="12" lengthAdjust="spacingAndGlyphs" textLength="32" x="340" y="807.6016">5,0,0</text><!--MD5=[b45aae0f3b99276c1ee37f4fb86352ed]
link start to null,null,null--><path d="M348,28.06 C348,39.86 348,60.85 348,76.77 " fill="none" id="start-&gt;null,null,null" style="stroke: #A80036; stroke-width: 1.0;"/><polygon fill="#A80036" points="348,81.95,352,72.95,348,76.95,344,72.95,348,81.95" style="stroke: #A80036; stroke-width: 1.0;"/><text fill="#000000" font-family="sans-serif" font-size="11" lengthAdjust="spacingAndGlyphs" textLength="7" x="349" y="59.6348">1</text><!--MD5=[ff0a00f70da80da25358af19c0e4feaa]
link null,null,null to 0,null,null--><path d="M348,116.18 C348,129.87 348,149.61 348,164.61 " fill="none" id="null,null,null-&gt;0,null,null" style="stroke: #A80036; stroke-width: 1.0;"/><polygon fill="#A80036" points="348,169.9,352,160.9,348,164.9,344,160.9,348,169.9" style="stroke: #A80036; stroke-width: 1.0;"/><text fill="#000000" font-family="sans-serif" font-size="11" lengthAdjust="spacingAndGlyphs" textLength="7" x="349" y="147.6348">1</text><!--MD5=[fd6637804d4ecb030ff4e4708245465c]
link 0,null,null to 0,0,null--><path d="M348,204.18 C348,217.87 348,237.61 348,252.61 " fill="none" id="0,null,null-&gt;0,0,null" style="stroke: #A80036; stroke-width: 1.0;"/><polygon fill="#A80036" points="348,257.9,352,248.9,348,252.9,344,248.9,348,257.9" style="stroke: #A80036; stroke-width: 1.0;"/><text fill="#000000" font-family="sans-serif" font-size="11" lengthAdjust="spacingAndGlyphs" textLength="7" x="349" y="235.6348">1</text><!--MD5=[9e7978e5458cd7b7d749d08fe2230838]
link 0,0,null to 0,0,0--><path d="M348,292.18 C348,305.87 348,325.61 348,340.61 " fill="none" id="0,0,null-&gt;0,0,0" style="stroke: #A80036; stroke-width: 1.0;"/><polygon fill="#A80036" points="348,345.9,352,336.9,348,340.9,344,336.9,348,345.9" style="stroke: #A80036; stroke-width: 1.0;"/><text fill="#000000" font-family="sans-serif" font-size="11" lengthAdjust="spacingAndGlyphs" textLength="7" x="349" y="323.6348">1</text><!--MD5=[0d3acbf791c7412d01b34756158b63c8]
link 0,0,0 to 0,1,0--><path d="M321.79,370.94 C307.09,376.3 289.96,385.36 281,400 C275.8,408.5 275.06,419.43 275.83,428.89 " fill="none" id="0,0,0-&gt;0,1,0" style="stroke: #A80036; stroke-width: 1.0;"/><polygon fill="#A80036" points="276.39,433.98,279.3894,424.599,275.8472,429.0095,271.4367,425.4674,276.39,433.98" style="stroke: #A80036; stroke-width: 1.0;"/><text fill="#000000" font-family="sans-serif" font-size="11" lengthAdjust="spacingAndGlyphs" textLength="7" x="282" y="411.6348">2</text><!--MD5=[238bd6f6f255f9751673a14ae9ea64ef]
link 0,1,0 to 0,0,0--><path d="M292.73,433.9 C303.83,419.86 319.97,399.45 331.95,384.3 " fill="none" id="0,1,0-&gt;0,0,0" style="stroke: #A80036; stroke-width: 1.0;"/><polygon fill="#A80036" points="335.21,380.18,326.4866,384.752,332.1058,384.0996,332.7581,389.7188,335.21,380.18" style="stroke: #A80036; stroke-width: 1.0;"/><text fill="#000000" font-family="sans-serif" font-size="11" lengthAdjust="spacingAndGlyphs" textLength="7" x="319" y="411.6348">1</text><!--MD5=[8b006cb793f7b35ddc7f1b3fc579862b]
link 0,1,0 to 0,1,1--><path d="M276.24,468.18 C273.03,481.99 268.38,501.95 264.88,517 " fill="none" id="0,1,0-&gt;0,1,1" style="stroke: #A80036; stroke-width: 1.0;"/><polygon fill="#A80036" points="263.74,521.9,269.668,514.035,264.8685,517.029,261.8745,512.2294,263.74,521.9" style="stroke: #A80036; stroke-width: 1.0;"/><text fill="#000000" font-family="sans-serif" font-size="11" lengthAdjust="spacingAndGlyphs" textLength="7" x="273" y="499.6348">1</text><!--MD5=[7e7761d0e72af8f125e0fc2c786cc932]
link 0,1,1 to 0,1,2--><path d="M246.27,556.18 C234.34,570.23 217.01,590.65 204.16,605.78 " fill="none" id="0,1,1-&gt;0,1,2" style="stroke: #A80036; stroke-width: 1.0;"/><polygon fill="#A80036" points="200.67,609.9,209.5471,605.6341,203.9087,606.0907,203.4521,600.4523,200.67,609.9" style="stroke: #A80036; stroke-width: 1.0;"/><text fill="#000000" font-family="sans-serif" font-size="11" lengthAdjust="spacingAndGlyphs" textLength="7" x="229" y="587.6348">1</text><!--MD5=[9bad9f11ab6ea574cc91ae88e8b9456a]
link 0,1,2 to 0,1,3--><path d="M168.81,644.15 C162.14,650.24 154.6,657.31 148,664 C138.52,673.6 128.44,684.71 120.22,694.02 " fill="none" id="0,1,2-&gt;0,1,3" style="stroke: #A80036; stroke-width: 1.0;"/><polygon fill="#A80036" points="116.82,697.89,125.7646,693.7676,120.1196,694.1333,119.7539,688.4883,116.82,697.89" style="stroke: #A80036; stroke-width: 1.0;"/><text fill="#000000" font-family="sans-serif" font-size="11" lengthAdjust="spacingAndGlyphs" textLength="7" x="149" y="675.6348">1</text><!--MD5=[68f1988e31974291256379e230fca7e6]
link 0,1,3 to 0,1,4--><path d="M78.3,732.14 C70.84,737.8 63.03,744.62 57,752 C49.99,760.57 44.26,771.44 40.07,780.85 " fill="none" id="0,1,3-&gt;0,1,4" style="stroke: #A80036; stroke-width: 1.0;"/><polygon fill="#A80036" points="38.01,785.62,45.2494,778.9423,39.9916,781.0295,37.9045,775.7717,38.01,785.62" style="stroke: #A80036; stroke-width: 1.0;"/><text fill="#000000" font-family="sans-serif" font-size="11" lengthAdjust="spacingAndGlyphs" textLength="14" x="58" y="763.6348">21</text><!--MD5=[88fd8865dc04c9c1261c3c3cb4e2b0b2]
link 0,1,4 to 0,0,4--><path d="M32,820.18 C32,833.87 32,853.61 32,868.61 " fill="none" id="0,1,4-&gt;0,0,4" style="stroke: #A80036; stroke-width: 1.0;"/><polygon fill="#A80036" points="32,873.9,36,864.9,32,868.9,28,864.9,32,873.9" style="stroke: #A80036; stroke-width: 1.0;"/><text fill="#000000" font-family="sans-serif" font-size="11" lengthAdjust="spacingAndGlyphs" textLength="14" x="33" y="851.6348">21</text><!--MD5=[a2e45cf88bcc4fbf44f3b3cf0475aff9]
link 0,0,4 to 0,0,3--><path d="M38.01,908.38 C42.31,918.7 48.77,931.93 57,942 C61.9,948 67.97,953.62 74.08,958.56 " fill="none" id="0,0,4-&gt;0,0,3" style="stroke: #A80036; stroke-width: 1.0;"/><polygon fill="#A80036" points="78.3,961.86,73.6777,953.1632,74.3625,958.7785,68.7472,959.4632,78.3,961.86" style="stroke: #A80036; stroke-width: 1.0;"/><text fill="#000000" font-family="sans-serif" font-size="11" lengthAdjust="spacingAndGlyphs" textLength="14" x="58" y="939.6348">21</text><!--MD5=[b418eba736a5f9bb9e91a879de6002c9]
link 0,0,3 to 0,1,3--><path d="M104.09,961.88 C104.46,955.67 104.82,948.51 105,942 C107.34,857.59 107.34,836.41 105,752 C104.87,747.22 104.64,742.09 104.38,737.24 " fill="none" id="0,0,3-&gt;0,1,3" style="stroke: #A80036; stroke-width: 1.0;"/><polygon fill="#A80036" points="104.09,732.12,100.61,741.3335,104.3752,737.1119,108.5969,740.8771,104.09,732.12" style="stroke: #A80036; stroke-width: 1.0;"/><text fill="#000000" font-family="sans-serif" font-size="11" lengthAdjust="spacingAndGlyphs" textLength="14" x="108" y="851.6348">21</text><!--MD5=[fd2ff0616f1f6e457accd0fe180dd97f]
link 0,1,3 to 0,0,3--><path d="M101.29,732.03 C98.87,755.63 94.56,801.16 93,840 C91.33,881.4 96.45,929.67 99.97,956.75 " fill="none" id="0,1,3-&gt;0,0,3" style="stroke: #A80036; stroke-width: 1.0;"/><polygon fill="#A80036" points="100.65,961.87,103.4326,952.4224,99.9929,956.9134,95.502,953.4737,100.65,961.87" style="stroke: #A80036; stroke-width: 1.0;"/><text fill="#000000" font-family="sans-serif" font-size="11" lengthAdjust="spacingAndGlyphs" textLength="7" x="94" y="851.6348">1</text><!--MD5=[b4779f90c0e2e651e47a18590c522386]
link 0,0,3 to 0,0,2--><path d="M116.82,996.11 C125.54,1006.08 137.17,1019.03 148,1030 C153.37,1035.43 159.34,1041.12 164.98,1046.33 " fill="none" id="0,0,3-&gt;0,0,2" style="stroke: #A80036; stroke-width: 1.0;"/><polygon fill="#A80036" points="168.81,1049.85,164.888,1040.8157,165.1278,1046.4675,159.476,1046.7073,168.81,1049.85" style="stroke: #A80036; stroke-width: 1.0;"/><text fill="#000000" font-family="sans-serif" font-size="11" lengthAdjust="spacingAndGlyphs" textLength="7" x="149" y="1027.6348">1</text><!--MD5=[3f455cc48e7f30bf1c9322f590b2da67]
link 0,0,2 to 0,1,2--><path d="M195.71,1049.7 C203.93,1032.78 215,1005.28 215,980 C215,714 215,714 215,714 C215,690.89 205.75,665.93 197.88,648.89 " fill="none" id="0,0,2-&gt;0,1,2" style="stroke: #A80036; stroke-width: 1.0;"/><polygon fill="#A80036" points="195.71,644.3,195.9184,654.1467,197.8369,648.8251,203.1585,650.7436,195.71,644.3" style="stroke: #A80036; stroke-width: 1.0;"/><text fill="#000000" font-family="sans-serif" font-size="11" lengthAdjust="spacingAndGlyphs" textLength="7" x="216" y="851.6348">1</text><!--MD5=[8928278838d9e760d466646c2548c8e4]
link 0,1,2 to 0,0,2--><path d="M182.8,644.04 C178.68,661.22 173,689.34 173,714 C173,714 173,714 173,980 C173,1002.35 177.66,1027.54 181.6,1044.85 " fill="none" id="0,1,2-&gt;0,0,2" style="stroke: #A80036; stroke-width: 1.0;"/><polygon fill="#A80036" points="182.8,1049.96,184.6323,1040.2831,181.6548,1045.0929,176.845,1042.1154,182.8,1049.96" style="stroke: #A80036; stroke-width: 1.0;"/><text fill="#000000" font-family="sans-serif" font-size="11" lengthAdjust="spacingAndGlyphs" textLength="7" x="174" y="851.6348">1</text><!--MD5=[05cc94dd4914ed2f7c5b5ff8c15626e6]
link 0,0,2 to 0,0,1--><path d="M200.51,1084.42 C209.12,1094.52 220.73,1107.48 232,1118 C238.14,1123.73 245.12,1129.52 251.76,1134.73 " fill="none" id="0,0,2-&gt;0,0,1" style="stroke: #A80036; stroke-width: 1.0;"/><polygon fill="#A80036" points="255.83,1137.9,251.1881,1129.2136,251.8855,1134.8273,246.2719,1135.5248,255.83,1137.9" style="stroke: #A80036; stroke-width: 1.0;"/><text fill="#000000" font-family="sans-serif" font-size="11" lengthAdjust="spacingAndGlyphs" textLength="7" x="233" y="1115.6348">1</text><!--MD5=[0b355edd7515d061186469cc330efbad]
link 0,0,1 to 0,1,1--><path d="M284.41,1137.8 C290.59,1120.72 299,1092.9 299,1068 C299,626 299,626 299,626 C299,602.02 286.27,577.37 275.36,560.65 " fill="none" id="0,0,1-&gt;0,1,1" style="stroke: #A80036; stroke-width: 1.0;"/><polygon fill="#A80036" points="272.34,556.14,274.0272,565.8433,275.1234,560.2937,280.673,561.3899,272.34,556.14" style="stroke: #A80036; stroke-width: 1.0;"/><text fill="#000000" font-family="sans-serif" font-size="11" lengthAdjust="spacingAndGlyphs" textLength="7" x="300" y="851.6348">1</text><!--MD5=[ac13619bcac7cb71e207ad937c3f6dec]
link 0,1,1 to 0,0,1--><path d="M259.1,556.16 C258.22,573.44 257,601.65 257,626 C257,626 257,626 257,1068 C257,1090.56 263.91,1115.53 269.8,1132.73 " fill="none" id="0,1,1-&gt;0,0,1" style="stroke: #A80036; stroke-width: 1.0;"/><polygon fill="#A80036" points="271.59,1137.8,272.3619,1127.9814,269.9237,1133.0858,264.8193,1130.6476,271.59,1137.8" style="stroke: #A80036; stroke-width: 1.0;"/><text fill="#000000" font-family="sans-serif" font-size="11" lengthAdjust="spacingAndGlyphs" textLength="7" x="258" y="851.6348">1</text><!--MD5=[45a6af229670eff89147d66e8222559f]
link 0,0,1 to 0,0,0--><path d="M304.03,1149.55 C343.26,1141.19 413,1119.13 413,1068 C413,450 413,450 413,450 C413,423.03 392.4,399.17 374.4,383.47 " fill="none" id="0,0,1-&gt;0,0,0" style="stroke: #A80036; stroke-width: 1.0;"/><polygon fill="#A80036" points="370.37,380.05,374.6552,388.9177,374.1864,383.2804,379.8238,382.8115,370.37,380.05" style="stroke: #A80036; stroke-width: 1.0;"/><text fill="#000000" font-family="sans-serif" font-size="11" lengthAdjust="spacingAndGlyphs" textLength="7" x="414" y="763.6348">1</text><!--MD5=[3230fc4d2a0a107b7bad7603b301b61a]
link 0,0,0 to 1,0,0--><path d="M347.84,380.24 C347.87,390.03 348.11,402.75 349,414 C349.38,418.8 349.98,423.95 350.63,428.8 " fill="none" id="0,0,0-&gt;1,0,0" style="stroke: #A80036; stroke-width: 1.0;"/><polygon fill="#A80036" points="351.35,433.92,354.0523,424.4491,350.6509,428.9691,346.1309,425.5677,351.35,433.92" style="stroke: #A80036; stroke-width: 1.0;"/><text fill="#000000" font-family="sans-serif" font-size="11" lengthAdjust="spacingAndGlyphs" textLength="7" x="350" y="411.6348">5</text><!--MD5=[d13e43940a44220f4701ab7f9c23721d]
link 1,0,0 to 0,0,0--><path d="M357.06,433.74 C358.47,423.94 359.53,411.22 358,400 C357.34,395.19 356.22,390.11 354.95,385.33 " fill="none" id="1,0,0-&gt;0,0,0" style="stroke: #A80036; stroke-width: 1.0;"/><polygon fill="#A80036" points="353.53,380.29,352.122,390.0377,354.8866,385.1024,359.8219,387.8671,353.53,380.29" style="stroke: #A80036; stroke-width: 1.0;"/><text fill="#000000" font-family="sans-serif" font-size="11" lengthAdjust="spacingAndGlyphs" textLength="7" x="359" y="411.6348">5</text><!--MD5=[3bbe137a23e3bcf049907b0b566efe95]
link 1,0,0 to 2,0,0--><path d="M344.9,468.04 C340.46,477.76 336.55,490.48 339,502 C340.09,507.12 341.95,512.39 344.03,517.27 " fill="none" id="1,0,0-&gt;2,0,0" style="stroke: #A80036; stroke-width: 1.0;"/><polygon fill="#A80036" points="346.17,522,346.1129,512.1513,344.1128,517.4428,338.8213,515.4428,346.17,522" style="stroke: #A80036; stroke-width: 1.0;"/><text fill="#000000" font-family="sans-serif" font-size="11" lengthAdjust="spacingAndGlyphs" textLength="7" x="340" y="499.6348">5</text><!--MD5=[0e4941ba54df3c5232dfc4578240208f]
link 2,0,0 to 1,0,0--><path d="M354.81,521.9 C354.65,508.22 354.42,488.49 354.25,473.47 " fill="none" id="2,0,0-&gt;1,0,0" style="stroke: #A80036; stroke-width: 1.0;"/><polygon fill="#A80036" points="354.19,468.18,350.2931,477.2251,354.2471,473.1797,358.2926,477.1337,354.19,468.18" style="stroke: #A80036; stroke-width: 1.0;"/><text fill="#000000" font-family="sans-serif" font-size="11" lengthAdjust="spacingAndGlyphs" textLength="7" x="355" y="499.6348">5</text><!--MD5=[cd3a2591e8f65b24c8dda4584ffb25e5]
link 2,0,0 to 3,0,0--><path d="M349.48,556.16 C346.8,565.92 344.45,578.64 346,590 C346.66,594.81 347.78,599.89 349.05,604.67 " fill="none" id="2,0,0-&gt;3,0,0" style="stroke: #A80036; stroke-width: 1.0;"/><polygon fill="#A80036" points="350.47,609.71,351.878,599.9623,349.1134,604.8976,344.1781,602.1329,350.47,609.71" style="stroke: #A80036; stroke-width: 1.0;"/><text fill="#000000" font-family="sans-serif" font-size="11" lengthAdjust="spacingAndGlyphs" textLength="7" x="347" y="587.6348">5</text><!--MD5=[53376c92e850906a96e0fd38a518024a]
link 3,0,0 to 2,0,0--><path d="M355.81,609.9 C355.65,596.22 355.42,576.49 355.25,561.47 " fill="none" id="3,0,0-&gt;2,0,0" style="stroke: #A80036; stroke-width: 1.0;"/><polygon fill="#A80036" points="355.19,556.18,351.2931,565.2251,355.2471,561.1797,359.2926,565.1337,355.19,556.18" style="stroke: #A80036; stroke-width: 1.0;"/><text fill="#000000" font-family="sans-serif" font-size="11" lengthAdjust="spacingAndGlyphs" textLength="7" x="356" y="587.6348">5</text><!--MD5=[cb38645d8e9a759577c8c08601380d8f]
link 3,0,0 to 4,0,0--><path d="M350.47,644.29 C348.66,650.4 346.89,657.44 346,664 C344.71,673.44 346.28,683.79 348.52,692.6 " fill="none" id="3,0,0-&gt;4,0,0" style="stroke: #A80036; stroke-width: 1.0;"/><polygon fill="#A80036" points="349.99,697.87,351.4517,688.1302,348.6599,693.0502,343.7399,690.2584,349.99,697.87" style="stroke: #A80036; stroke-width: 1.0;"/><text fill="#000000" font-family="sans-serif" font-size="11" lengthAdjust="spacingAndGlyphs" textLength="7" x="347" y="675.6348">5</text><!--MD5=[1cd03ff500394aac42280527f3549a1a]
link 4,0,0 to 3,0,0--><path d="M356,697.9 C356,684.22 356,664.49 356,649.47 " fill="none" id="4,0,0-&gt;3,0,0" style="stroke: #A80036; stroke-width: 1.0;"/><polygon fill="#A80036" points="356,644.18,352,653.18,356,649.18,360,653.18,356,644.18" style="stroke: #A80036; stroke-width: 1.0;"/><text fill="#000000" font-family="sans-serif" font-size="11" lengthAdjust="spacingAndGlyphs" textLength="7" x="357" y="675.6348">5</text><!--MD5=[9a38ef6e5d2329e56235eb738a386d29]
link 4,0,0 to 5,0,0--><path d="M347.72,732.06 C345.01,738.14 342.35,745.23 341,752 C339.05,761.75 341.53,772.32 344.99,781.22 " fill="none" id="4,0,0-&gt;5,0,0" style="stroke: #A80036; stroke-width: 1.0;"/><polygon fill="#A80036" points="347,785.98,347.194,776.1331,345.0597,781.3718,339.8209,779.2375,347,785.98" style="stroke: #A80036; stroke-width: 1.0;"/><text fill="#000000" font-family="sans-serif" font-size="11" lengthAdjust="spacingAndGlyphs" textLength="7" x="342" y="763.6348">5</text><!--MD5=[ed6c9698226645a9f9084383eea759d4]
link 5,0,0 to 4,0,0--><path d="M356,785.9 C356,772.22 356,752.49 356,737.47 " fill="none" id="5,0,0-&gt;4,0,0" style="stroke: #A80036; stroke-width: 1.0;"/><polygon fill="#A80036" points="356,732.18,352,741.18,356,737.18,360,741.18,356,732.18" style="stroke: #A80036; stroke-width: 1.0;"/><text fill="#000000" font-family="sans-serif" font-size="11" lengthAdjust="spacingAndGlyphs" textLength="7" x="357" y="763.6348">5</text><!--MD5=[d4a2174058850fdf1e669a39820eb4c9]
@startuml
(*) - -> [1] "null,null,null"
"null,null,null" - -> [1] "0,null,null"
"0,null,null" - -> [1] "0,0,null"
"0,0,null" - -> [1] "0,0,0"
"0,0,0" - -> [2] "0,1,0"
"0,1,0" - -> [1] "0,1,1"
"0,1,1" - -> [1] "0,1,2"
"0,1,2" - -> [1] "0,1,3"
"0,1,3" - -> [21] "0,1,4"
"0,1,4" - -> [21] "0,0,4"
"0,0,4" - -> [21] "0,0,3"
"0,0,3" - -> [21] "0,1,3"
"0,1,3" - -> [1] "0,0,3"
"0,0,3" - -> [1] "0,0,2"
"0,0,2" - -> [1] "0,1,2"
"0,1,2" - -> [1] "0,0,2"
"0,0,2" - -> [1] "0,0,1"
"0,0,1" - -> [1] "0,1,1"
"0,1,1" - -> [1] "0,0,1"
"0,0,1" - -> [1] "0,0,0"
"0,1,0" - -> [1] "0,0,0"
"0,0,0" - -> [5] "1,0,0"
"1,0,0" - -> [5] "2,0,0"
"2,0,0" - -> [5] "3,0,0"
"3,0,0" - -> [5] "4,0,0"
"4,0,0" - -> [5] "5,0,0"
"5,0,0" - -> [5] "4,0,0"
"4,0,0" - -> [5] "3,0,0"
"3,0,0" - -> [5] "2,0,0"
"2,0,0" - -> [5] "1,0,0"
"1,0,0" - -> [5] "0,0,0" #red
@enduml

PlantUML version 1.2019.11(Sun Sep 22 06:02:15 EDT 2019)
(EPL source distribution)
Java Runtime: Java(TM) SE Runtime Environment
JVM: Java HotSpot(TM) 64-Bit Server VM
Java Version: 1.8.0_261-b12
Operating System: Mac OS X
Default Encoding: UTF-8
Language: en
Country: US
--></g></svg>